<svg width="1100" height="250" viewBox="0 0 1100 250" fill="none" xmlns="http://www.w3.org/2000/svg">
<path d="M147.535 35.0466C145.602 34.8002 143.668 35.5395 142.437 37.0531C141.207 38.5668 140.82 40.6086 141.453 42.4743C142.438 45.3609 142.965 48.4234 142.965 51.662C142.965 67.1862 130.414 79.7886 114.91 79.8238H109.25C96.8398 79.8238 86.75 89.9268 86.75 102.353C86.75 109.077 89.7031 115.132 94.3789 119.25H89.5625C75.5703 119.25 64.25 130.585 64.25 144.596C64.25 152.763 68.1172 160.014 74.0938 164.661C62.1055 166.667 53 177.087 53 189.654C53 203.665 64.3203 215 78.3125 215H207.688C221.68 215 233 203.665 233 189.654C233 177.087 223.895 166.667 211.906 164.661C217.883 160.014 221.75 152.763 221.75 144.596C221.75 130.585 210.43 119.25 196.438 119.25H191.621C196.297 115.132 199.25 109.077 199.25 102.353C199.25 89.9268 189.16 79.8238 176.75 79.8238H174.816C176.047 76.3035 176.75 72.5017 176.75 68.5591C176.75 51.4508 164.023 37.2996 147.535 35.0818V35.0466ZM120.5 124.847C123.484 124.847 126.345 126.034 128.455 128.147C130.565 130.259 131.75 133.124 131.75 136.112C131.75 139.1 130.565 141.965 128.455 144.077C126.345 146.19 123.484 147.377 120.5 147.377C117.516 147.377 114.655 146.19 112.545 144.077C110.435 141.965 109.25 139.1 109.25 136.112C109.25 133.124 110.435 130.259 112.545 128.147C114.655 126.034 117.516 124.847 120.5 124.847ZM154.25 136.112C154.25 133.124 155.435 130.259 157.545 128.147C159.655 126.034 162.516 124.847 165.5 124.847C168.484 124.847 171.345 126.034 173.455 128.147C175.565 130.259 176.75 133.124 176.75 136.112C176.75 139.1 175.565 141.965 173.455 144.077C171.345 146.19 168.484 147.377 165.5 147.377C162.516 147.377 159.655 146.19 157.545 144.077C155.435 141.965 154.25 139.1 154.25 136.112ZM176.75 174.236C176.75 175.081 176.504 175.926 175.977 176.594C173.094 180.291 162.09 192.435 143 192.435C123.91 192.435 112.906 180.255 110.023 176.594C109.496 175.926 109.25 175.081 109.25 174.236C109.25 171.842 111.184 169.906 113.574 169.906H172.426C174.816 169.906 176.75 171.842 176.75 174.236Z" fill="#003049"/>
<path d="M288.96 174V81.84H345.28V99.248H306.368V119.216H337.6V136.624H306.368V174H288.96ZM351.715 95.28V79.92H369.123V95.28H351.715ZM351.715 174V104.88H369.123V174H351.715ZM374.23 174L398.934 139.056L374.742 104.88H395.222L409.046 125.36L422.614 104.88H443.094L418.902 139.056L443.734 174H423.254L409.046 152.752L394.71 174H374.23ZM486.085 174V81.84H501.701L532.165 143.024L562.629 81.84H578.245V174H561.989V118.96L535.237 174H529.093L502.341 118.96V174H486.085ZM598.642 204.72L611.954 168.112L612.21 178.864L582.13 104.88H600.178L620.402 157.232H616.306L636.402 104.88H653.81L614.77 204.72H598.642ZM729.676 175.92C722.849 175.92 716.684 174.725 711.18 172.336C705.719 169.904 701.217 166.448 697.676 161.968C694.177 157.445 691.959 152.069 691.02 145.84L709.196 143.152C710.476 148.443 713.121 152.517 717.132 155.376C721.143 158.235 725.708 159.664 730.828 159.664C733.687 159.664 736.46 159.216 739.148 158.32C741.836 157.424 744.033 156.101 745.74 154.352C747.489 152.603 748.364 150.448 748.364 147.888C748.364 146.949 748.215 146.053 747.916 145.2C747.66 144.304 747.212 143.472 746.572 142.704C745.932 141.936 745.015 141.211 743.82 140.528C742.668 139.845 741.196 139.227 739.404 138.672L715.468 131.632C713.676 131.12 711.585 130.395 709.196 129.456C706.849 128.517 704.567 127.173 702.348 125.424C700.129 123.675 698.273 121.371 696.78 118.512C695.329 115.611 694.604 111.963 694.604 107.568C694.604 101.381 696.161 96.24 699.276 92.144C702.391 88.048 706.551 84.9973 711.756 82.992C716.961 80.9867 722.721 80.0053 729.036 80.048C735.393 80.1333 741.068 81.2213 746.06 83.312C751.052 85.4027 755.233 88.4533 758.604 92.464C761.975 96.432 764.407 101.296 765.9 107.056L747.084 110.256C746.401 107.269 745.143 104.752 743.308 102.704C741.473 100.656 739.276 99.0987 736.716 98.032C734.199 96.9653 731.553 96.3893 728.78 96.304C726.049 96.2187 723.468 96.6027 721.036 97.456C718.647 98.2667 716.684 99.4613 715.148 101.04C713.655 102.619 712.908 104.496 712.908 106.672C712.908 108.677 713.527 110.32 714.764 111.6C716.001 112.837 717.559 113.84 719.436 114.608C721.313 115.376 723.233 116.016 725.196 116.528L741.196 120.88C743.585 121.52 746.231 122.373 749.132 123.44C752.033 124.464 754.807 125.915 757.452 127.792C760.14 129.627 762.337 132.059 764.044 135.088C765.793 138.117 766.668 141.957 766.668 146.608C766.668 151.557 765.623 155.888 763.532 159.6C761.484 163.269 758.711 166.32 755.212 168.752C751.713 171.141 747.745 172.933 743.308 174.128C738.913 175.323 734.369 175.92 729.676 175.92ZM804.799 175.92C797.631 175.92 791.487 174.32 786.367 171.12C781.247 167.92 777.322 163.568 774.591 158.064C771.86 152.56 770.495 146.352 770.495 139.44C770.495 132.443 771.903 126.192 774.719 120.688C777.578 115.184 781.588 110.853 786.751 107.696C791.914 104.539 798.015 102.96 805.055 102.96C813.204 102.96 820.031 105.029 825.535 109.168C831.082 113.264 834.623 118.875 836.159 126L818.751 130.608C817.727 127.024 815.935 124.229 813.375 122.224C810.858 120.219 807.999 119.216 804.799 119.216C801.13 119.216 798.122 120.112 795.775 121.904C793.428 123.653 791.7 126.064 790.591 129.136C789.482 132.165 788.927 135.6 788.927 139.44C788.927 145.456 790.25 150.341 792.895 154.096C795.583 157.808 799.551 159.664 804.799 159.664C808.724 159.664 811.711 158.768 813.759 156.976C815.807 155.184 817.343 152.624 818.367 149.296L836.159 153.008C834.196 160.347 830.484 166 825.023 169.968C819.562 173.936 812.82 175.92 804.799 175.92ZM889.664 174V141.36C889.664 139.781 889.579 137.776 889.408 135.344C889.237 132.869 888.704 130.395 887.808 127.92C886.912 125.445 885.44 123.376 883.392 121.712C881.387 120.048 878.528 119.216 874.816 119.216C873.323 119.216 871.723 119.451 870.016 119.92C868.309 120.389 866.709 121.307 865.216 122.672C863.723 123.995 862.485 125.957 861.504 128.56C860.565 131.163 860.096 134.619 860.096 138.928L850.112 134.192C850.112 128.731 851.221 123.611 853.44 118.832C855.659 114.053 858.987 110.192 863.424 107.248C867.904 104.304 873.536 102.832 880.32 102.832C885.739 102.832 890.155 103.749 893.568 105.584C896.981 107.419 899.627 109.744 901.504 112.56C903.424 115.376 904.789 118.32 905.6 121.392C906.411 124.421 906.901 127.195 907.072 129.712C907.243 132.229 907.328 134.064 907.328 135.216V174H889.664ZM842.432 174V81.84H857.92V129.2H860.096V174H842.432ZM918.815 95.28V79.92H936.223V95.28H918.815ZM918.815 174V104.88H936.223V174H918.815ZM990.482 174C985.703 174.896 981.01 175.28 976.402 175.152C971.837 175.067 967.741 174.277 964.114 172.784C960.53 171.248 957.799 168.795 955.922 165.424C954.215 162.267 953.319 159.067 953.234 155.824C953.149 152.539 953.106 148.827 953.106 144.688V85.68H970.514V143.664C970.514 146.352 970.535 148.784 970.578 150.96C970.663 153.093 971.111 154.8 971.922 156.08C973.458 158.512 975.911 159.835 979.282 160.048C982.653 160.261 986.386 160.091 990.482 159.536V174ZM941.33 118.32V104.88H990.482V118.32H941.33ZM1039.63 174C1034.86 174.896 1030.16 175.28 1025.55 175.152C1020.99 175.067 1016.89 174.277 1013.27 172.784C1009.68 171.248 1006.95 168.795 1005.07 165.424C1003.37 162.267 1002.47 159.067 1002.39 155.824C1002.3 152.539 1002.26 148.827 1002.26 144.688V85.68H1019.67V143.664C1019.67 146.352 1019.69 148.784 1019.73 150.96C1019.82 153.093 1020.26 154.8 1021.07 156.08C1022.61 158.512 1025.06 159.835 1028.43 160.048C1031.8 160.261 1035.54 160.091 1039.63 159.536V174ZM990.482 118.32V104.88H1039.63V118.32H990.482Z" fill="#003049"/>
</svg>
