<svg width="180" height="180" viewBox="0 0 180 180" fill="none" xmlns="http://www.w3.org/2000/svg">
<path d="M94.5352 0.0466239C92.6016 -0.199791 90.668 0.539454 89.4375 2.05315C88.207 3.56684 87.8203 5.60856 88.4531 7.47428C89.4375 10.3609 89.9648 13.4234 89.9648 16.662C89.9648 32.1862 77.4141 44.7886 61.9102 44.8238H56.25C43.8398 44.8238 33.75 54.9268 33.75 67.3531C33.75 74.0767 36.7031 80.1315 41.3789 84.2502H36.5625C22.5703 84.2502 11.25 95.5853 11.25 109.596C11.25 117.763 15.1172 125.014 21.0938 129.661C9.10547 131.667 0 142.087 0 154.654C0 168.665 11.3203 180 25.3125 180H154.688C168.68 180 180 168.665 180 154.654C180 142.087 170.895 131.667 158.906 129.661C164.883 125.014 168.75 117.763 168.75 109.596C168.75 95.5853 157.43 84.2502 143.438 84.2502H138.621C143.297 80.1315 146.25 74.0767 146.25 67.3531C146.25 54.9268 136.16 44.8238 123.75 44.8238H121.816C123.047 41.3035 123.75 37.5017 123.75 33.5591C123.75 16.4508 111.023 2.29956 94.5352 0.081826V0.0466239ZM67.5 89.8473C70.4837 89.8473 73.3452 91.0341 75.4549 93.1467C77.5647 95.2592 78.75 98.1244 78.75 101.112C78.75 104.1 77.5647 106.965 75.4549 109.077C73.3452 111.19 70.4837 112.377 67.5 112.377C64.5163 112.377 61.6548 111.19 59.5451 109.077C57.4353 106.965 56.25 104.1 56.25 101.112C56.25 98.1244 57.4353 95.2592 59.5451 93.1467C61.6548 91.0341 64.5163 89.8473 67.5 89.8473ZM101.25 101.112C101.25 98.1244 102.435 95.2592 104.545 93.1467C106.655 91.0341 109.516 89.8473 112.5 89.8473C115.484 89.8473 118.345 91.0341 120.455 93.1467C122.565 95.2592 123.75 98.1244 123.75 101.112C123.75 104.1 122.565 106.965 120.455 109.077C118.345 111.19 115.484 112.377 112.5 112.377C109.516 112.377 106.655 111.19 104.545 109.077C102.435 106.965 101.25 104.1 101.25 101.112ZM123.75 139.236C123.75 140.081 123.504 140.926 122.977 141.594C120.094 145.291 109.09 157.435 90 157.435C70.9102 157.435 59.9062 145.255 57.0234 141.594C56.4961 140.926 56.25 140.081 56.25 139.236C56.25 136.842 58.1836 134.906 60.5742 134.906H119.426C121.816 134.906 123.75 136.842 123.75 139.236Z" fill="#003049"/>
</svg>
